<svg width="367" height="395" viewBox="0 0 367 395" fill="none" xmlns="http://www.w3.org/2000/svg">
<g opacity="0.4" clip-path="url(#clip0_36_5580)">
<path d="M207.733 46.0288L128.102 92.0576L48.4661 46.0288L128.102 0L207.733 46.0288Z" fill="#E45C2B"/>
<path d="M207.733 322.007L128.102 368.036L48.4661 322.007L128.102 275.979L207.733 322.007Z" fill="#3B3B3B"/>
<path d="M128.102 275.979L48.4662 322.007L-31.1647 275.979L48.4662 229.95L128.102 275.979Z" fill="#3B3B3B"/>
<path d="M128.102 92.0576V184.115L48.4662 138.086V46.0288L128.102 92.0576Z" fill="#A7452C"/>
<path d="M207.733 414.065L128.102 460.094V368.036L207.733 322.007V414.065Z" fill="#191919"/>
<path d="M207.733 138.086L128.102 184.115V92.0576L207.733 46.0288V138.086Z" fill="#D04A02"/>
<path d="M128.102 183.921L48.4662 229.95L-31.1647 183.921L48.4662 137.892L128.102 183.921Z" fill="#3B3B3B"/>
<path d="M128.102 275.979L48.4662 229.95L128.102 183.921V275.979Z" fill="#191919"/>
<path d="M48.4662 137.795L-31.1647 183.824L-110.801 137.795L-31.1647 91.7661L48.4662 137.795Z" fill="#3B3B3B"/>
<path d="M-31.1647 183.921L48.4662 229.95L-31.1647 275.979V183.921Z" fill="#3B3B3B"/>
<path d="M48.4662 229.853L-31.1647 183.824L48.4662 137.795V229.853Z" fill="#191919"/>
<path d="M48.2668 322.007V414.065L-31.3641 368.036V275.979L48.2668 322.007Z" fill="#191919"/>
</g>
<defs>
<clipPath id="clip0_36_5580">
<rect width="478" height="506" fill="white" transform="matrix(-1 0 0 1 367 0)"/>
</clipPath>
</defs>
</svg>
