<svg width="620" height="656" viewBox="0 0 620 656" fill="none" xmlns="http://www.w3.org/2000/svg">
<g clip-path="url(#clip0_36_5628)">
<path d="M413.253 60.0828L310.132 119.666L207.005 60.0828L310.132 0.5L413.253 60.0828Z" fill="#E45C2B"/>
<path d="M413.253 417.328L310.132 476.911L207.005 417.328L310.132 357.745L413.253 417.328Z" fill="#3B3B3B"/>
<path d="M310.132 357.745L207.005 417.328L103.885 357.745L207.005 298.162L310.132 357.745Z" fill="#3B3B3B"/>
<path d="M310.132 119.666V238.831L207.005 179.248V60.0828L310.132 119.666Z" fill="#A7452C"/>
<path d="M413.253 536.493L310.132 596.076V476.911L413.253 417.328V536.493Z" fill="#191919"/>
<path d="M413.253 179.248L310.132 238.831V119.666L413.253 60.0828V179.248Z" fill="#D04A02"/>
<path d="M310.132 238.579L207.005 298.162L103.885 238.579L207.005 178.997L310.132 238.579Z" fill="#3B3B3B"/>
<path d="M310.132 357.745L207.005 298.162L310.132 238.579V357.745Z" fill="#191919"/>
<path d="M207.005 178.871L103.885 238.454L0.758026 178.871L103.885 119.288L207.005 178.871Z" fill="#3B3B3B"/>
<path d="M103.885 238.778V357.95L0.758026 298.367V298.361V179.195L103.885 238.778Z" fill="#191919"/>
<path d="M103.885 238.579L207.005 298.162L103.885 357.745V238.579Z" fill="#3B3B3B"/>
<path d="M207.005 298.036L103.885 238.454L207.005 178.871V298.036Z" fill="#191919"/>
<path d="M206.747 417.328V536.493L103.627 476.911V357.745L206.747 417.328Z" fill="#191919"/>
<path d="M103.627 357.58V476.745L0.499969 417.162V297.997L103.627 357.58Z" fill="#191919"/>
</g>
<defs>
<clipPath id="clip0_36_5628">
<rect width="619" height="655" fill="white" transform="matrix(-1 0 0 1 619.5 0.5)"/>
</clipPath>
</defs>
</svg>
