<svg width="57" height="57" viewBox="0 0 57 57" fill="none" xmlns="http://www.w3.org/2000/svg">
<g id="Loading Spinner">
<path id="Path" opacity="0.48" fill-rule="evenodd" clip-rule="evenodd" d="M9.83301 28.4999C9.83301 18.1906 18.1904 9.83325 28.4997 9.83325C38.809 9.83325 47.1663 18.1906 47.1663 28.4999C47.1663 38.8092 38.809 47.1666 28.4997 47.1666C18.1904 47.1666 9.83301 38.8092 9.83301 28.4999ZM42.4997 28.4999C42.4997 20.7679 36.2317 14.4999 28.4997 14.4999C20.7677 14.4999 14.4997 20.7679 14.4997 28.4999C14.4997 36.2319 20.7677 42.4999 28.4997 42.4999C36.2317 42.4999 42.4997 36.2319 42.4997 28.4999Z" fill="#D04A02"/>
<path id="loader" d="M47.167 28.4999C47.167 38.8092 38.8096 47.1666 28.5003 47.1666C18.3855 47.1666 10.1497 39.1216 9.84254 29.0813L9.83366 28.4999H14.5003C14.5003 36.2319 20.7683 42.4999 28.5003 42.4999C36.2323 42.4999 42.5003 36.2319 42.5003 28.4999C42.5003 20.9437 36.514 14.7856 29.0252 14.5096L28.5003 14.4999V9.83325C38.8096 9.83325 47.167 18.1906 47.167 28.4999Z" fill="#D04A02"/>
</g>
</svg>
