<svg width="201" height="201" viewBox="0 0 201 201" fill="none" xmlns="http://www.w3.org/2000/svg">
<g id="Light Mode/Notification States/No Search Results">
<path id="Path" d="M121.113 14.5C68.9571 14.5 0.5 44.1104 0.5 90.313C0.5 124.703 32.9883 165.149 89.3727 165.149C131.186 165.149 143.305 137.534 158.209 131.684C173.113 125.835 200.5 111.212 200.5 80.0273C200.5 48.8429 176.661 14.5 121.113 14.5Z" fill="#D04A02" fill-opacity="0.37"/>
<g id="Group">
<rect id="Rectangle" x="78.1426" y="29.9" width="95.2461" height="127.1" rx="3.23" fill="#4F4F4F"/>
<path id="Path_2" d="M168.053 148.089V29.9H81.7556C79.7602 29.9 78.1426 31.5068 78.1426 33.4889V151.7H164.451C165.412 151.7 166.334 151.319 167.01 150.64C167.687 149.962 168.062 149.044 168.053 148.089Z" fill="#323232"/>
<rect id="Rectangle_2" x="68.8809" y="20.7" width="95.2461" height="127.1" rx="3.23" fill="#4F4F4F"/>
<path id="Path_3" d="M158.791 138.911V20.7H72.4938C70.4984 20.7 68.8809 22.3068 68.8809 24.2888V142.533H155.178C156.143 142.536 157.069 142.155 157.748 141.474C158.428 140.793 158.803 139.87 158.791 138.911Z" fill="#323232"/>
<rect id="Rectangle_3" x="59.6191" y="11.5" width="95.2461" height="127.1" rx="3.23" fill="#4F4F4F"/>
<path id="Shape" fill-rule="evenodd" clip-rule="evenodd" d="M144.977 36.3666H69.4955C68.8778 36.3666 68.377 35.8692 68.377 35.2555C68.377 34.6419 68.8778 34.1444 69.4955 34.1444H144.977C145.594 34.1444 146.095 34.6419 146.095 35.2555C146.095 35.8692 145.594 36.3666 144.977 36.3666ZM146.095 48.5222C146.095 47.9085 145.594 47.4111 144.977 47.4111H69.4955C68.8778 47.4111 68.377 47.9085 68.377 48.5222C68.377 49.1358 68.8778 49.6333 69.4955 49.6333H144.977C145.594 49.6333 146.095 49.1358 146.095 48.5222ZM144.977 60.6666C145.594 60.6666 146.095 61.1641 146.095 61.7777C146.095 62.3914 145.594 62.8889 144.977 62.8889H69.4955C68.8778 62.8889 68.377 62.3914 68.377 61.7777C68.377 61.1641 68.8778 60.6666 69.4955 60.6666H144.977ZM146.095 75.0444C146.095 74.4308 145.594 73.9333 144.977 73.9333H69.4955C68.8778 73.9333 68.377 74.4308 68.377 75.0444C68.377 75.6581 68.8778 76.1555 69.4955 76.1555H144.977C145.594 76.1555 146.095 75.6581 146.095 75.0444ZM144.977 87.2C145.594 87.2 146.095 87.6974 146.095 88.3111C146.095 88.9247 145.594 89.4222 144.977 89.4222H69.4955C68.8778 89.4222 68.377 88.9247 68.377 88.3111C68.377 87.6974 68.8778 87.2 69.4955 87.2H144.977ZM146.095 101.578C146.095 100.964 145.594 100.467 144.977 100.467H69.4955C68.8778 100.467 68.377 100.964 68.377 101.578C68.377 102.191 68.8778 102.689 69.4955 102.689H144.977C145.594 102.689 146.095 102.191 146.095 101.578ZM144.977 113.733C145.594 113.733 146.095 114.231 146.095 114.844C146.095 115.458 145.594 115.956 144.977 115.956H69.4955C68.8778 115.956 68.377 115.458 68.377 114.844C68.377 114.231 68.8778 113.733 69.4955 113.733H144.977Z" fill="#686868"/>
<path id="Shape_2" fill-rule="evenodd" clip-rule="evenodd" d="M113.034 57.9497C131.701 68.5365 138.383 92.0306 128.053 110.756C117.845 128.739 95.3313 135.756 76.6102 126.789L70.7377 138.578H63.2209H63.0979L72.2142 124.333C67.0239 120.99 62.7072 116.469 59.6191 111.144V71.9445C70.6015 53.5892 94.3663 47.3628 113.034 57.9497ZM97.6746 59.0187C84.4331 57.4305 71.5324 63.9223 64.9883 75.4667C56.0535 91.2284 61.6723 111.201 77.5386 120.078C89.1597 126.58 103.579 125.488 114.074 117.311C124.568 109.134 129.07 95.4822 125.48 82.7222C121.891 69.9623 110.916 60.607 97.6746 59.0187Z" fill="#353535"/>
<path id="Shape_3" fill-rule="evenodd" clip-rule="evenodd" d="M69.4955 62.8888H77.7282C79.33 62.0196 80.9981 61.2766 82.717 60.6666H69.4731C69.1152 60.9333 68.7684 61.2222 68.4329 61.5111C68.4214 61.5959 68.4214 61.6818 68.4329 61.7666C68.4261 62.3635 68.8953 62.859 69.4955 62.8888ZM131.431 102.689H124.719C124.988 101.956 125.234 101.211 125.446 100.467H132.035C131.856 101.211 131.654 101.956 131.431 102.689ZM71.7327 115.956H69.4955C68.8778 115.956 68.377 115.458 68.377 114.844C68.377 114.231 68.8778 113.733 69.4955 113.733C70.1778 114.511 70.9385 115.244 71.7327 115.956ZM115.704 115.956H124.518C125.1 115.233 125.636 114.5 126.173 113.733H117.974C117.247 114.511 116.487 115.256 115.704 115.956ZM120.569 62.8888H109.697C108.104 62.0167 106.443 61.2736 104.73 60.6666H117.952C118.869 61.3777 119.73 62.1222 120.569 62.8888ZM122.818 76.1555H129.943C129.63 75.4111 129.283 74.6666 128.914 73.9333H121.531C121.99 74.6555 122.415 75.4 122.818 76.1555ZM133.108 89.4222H126.666C126.616 89.0568 126.575 88.6914 126.534 88.3274C126.491 87.9497 126.448 87.5734 126.397 87.2H132.918C132.926 87.2651 132.934 87.3303 132.942 87.3957C133.025 88.0656 133.108 88.7439 133.108 89.4222Z" fill="#575757"/>
<ellipse id="Oval" cx="80.2898" cy="80.4333" rx="35.66" ry="35.4222" fill="#CECECE"/>
<path id="Shape_4" fill-rule="evenodd" clip-rule="evenodd" d="M55.2116 105.611L111.498 63.2888C108.332 57.5247 103.605 52.756 97.8515 49.5222C97.0237 49.0555 96.1736 48.6333 95.3235 48.2444L45.1445 86.0222C46.3273 93.446 49.8523 100.305 55.2116 105.611ZM59.0819 108.889L113.634 67.8777C114.762 70.8273 115.484 73.9143 115.782 77.0555L67.3817 113.444C65.8015 112.839 64.2686 112.119 62.7955 111.289C61.5058 110.571 60.2652 109.769 59.0819 108.889Z" fill="#FFF5DE"/>
<path id="Shape_5" fill-rule="evenodd" clip-rule="evenodd" d="M46.7231 60.2038C57.7225 42.1852 81.1077 36.0494 99.6301 46.3222C118.038 56.7431 124.856 79.7578 115.065 98.422C105.273 117.086 82.376 124.719 63.2319 115.7L63.2038 115.756C59.2399 123.745 38.4089 165.724 37.5831 166.322C36.7554 166.922 35.3124 167.489 31.9903 165.633C28.6681 163.778 28.4332 162.178 28.5115 161.256C28.5898 160.333 54.0596 120.6 58.7912 113.222C41.0578 101.657 35.7237 78.2224 46.7231 60.2038ZM76.3435 112.953C89.5849 114.539 102.484 108.045 109.026 96.4999C113.319 88.9301 114.407 79.976 112.051 71.6089C109.695 63.2418 104.088 56.1479 96.4645 51.8888C84.8419 45.3904 70.4229 46.4866 59.931 54.6661C49.4392 62.8456 44.9408 76.4977 48.5334 89.2564C52.126 102.015 63.102 111.368 76.3435 112.953Z" fill="#E45C2B"/>
</g>
</g>
</svg>
